<svg width="29" height="28" viewBox="0 0 29 28" fill="none" xmlns="http://www.w3.org/2000/svg">
<path d="M16.9546 14.6133V12.7557H20.0196V14.6133H16.9546ZM24.9733 12.7557V14.6133H21.8153V12.7557H24.9733ZM14.3539 19.3812C17.388 19.2574 21.3819 19.1336 25.3758 18.9168C25.9331 19.4741 26.3975 20.0314 26.7071 20.4649L28.4409 19.7528C27.6669 18.7001 26.0879 17.1521 24.7256 16.0994L23.0847 16.7496C23.3943 17.0282 23.7349 17.3069 24.0445 17.6165L21.8153 17.6784V16.0685H26.8V11.2696H21.8153V9.75254H20.0196V11.2696H15.1898V16.0685H20.0196V17.7094C17.7905 17.7403 15.7471 17.7713 14.1372 17.8023L14.3539 19.3812ZM15.4994 6.34689H19.3695L18.4407 6.93514C19.1218 7.18283 19.8029 7.49243 20.515 7.83299L15.4994 7.86396V6.34689ZM7.01625 4.89175V3.06508H13.2393V4.89175H7.01625ZM21.9392 3.06508V4.89175H15.4994V3.06508H21.9392ZM2.74371 9.59774C7.94507 9.56678 15.7471 9.44294 23.1776 9.22621C24.1064 9.7835 24.9424 10.3098 25.5616 10.8052L27.1096 9.6287C25.7164 8.60701 23.2705 7.27571 21.0104 6.34689H24.1683V1.60994H15.4994V0H13.2393V1.60994H4.87998V6.34689H13.2393V7.89492C9.12156 7.89492 5.37535 7.92588 2.58891 7.89492L2.74371 9.59774ZM3.39388 14.6133V12.7557H6.39704V14.6133H3.39388ZM11.3198 12.7557V14.6133H8.16179V12.7557H11.3198ZM0.576478 19.3812C3.57964 19.2574 7.57354 19.1026 11.5984 18.9168C11.939 19.3503 12.2486 19.7837 12.4343 20.1243L14.1372 19.5051C13.5489 18.5763 12.2486 17.1521 11.1959 16.1923L9.58597 16.7186C9.86461 16.9973 10.1742 17.2759 10.4529 17.6165L8.16179 17.6475V16.0685H13.1464V11.2696H8.16179V9.75254H6.39704V11.2696H1.62913V16.0685H6.39704V17.7094C4.13693 17.7403 2.09354 17.7713 0.452637 17.8023L0.576478 19.3812ZM5.65399 22.1058H9.92653V25.5733H5.65399V22.1058ZM16.3663 22.1058V25.5733H12.0628V22.1058H16.3663ZM22.8061 22.1058V25.5733H18.4716V22.1058H22.8061ZM25.0662 20.4029H3.48676V25.5733H0.514558V27.4H28.2551V25.5733H25.0662V20.4029Z" fill="#F60E1B"/>
</svg>
