<svg width="29" height="29" viewBox="0 0 29 29" fill="none" xmlns="http://www.w3.org/2000/svg">
<path d="M27.6406 10.4628H15.2726V8.15164H24.7673V6.43386H15.2726V4.31006H26.7037V2.56105H15.2726V0H12.9927V2.56105H2.15503V4.31006H12.9927V6.43386H3.93528V8.15164H12.9927V10.4628H0.843273V12.2743H27.6406V10.4628ZM14.1483 23.0807C14.3044 22.2374 14.4918 21.2692 14.648 20.2386H21.2692C21.1755 21.3629 21.0506 22.2999 20.9569 23.0807H14.1483ZM12.5554 20.2386C12.368 21.2692 12.2118 22.2374 12.0557 23.0807H5.77798C5.99661 22.175 6.21524 21.2068 6.43386 20.2386H12.5554ZM13.2113 15.6786C13.1176 16.5531 12.9927 17.4589 12.8365 18.3958H6.83988C7.02728 17.4901 7.21467 16.5531 7.40207 15.6786H13.2113ZM14.9291 18.3958C15.054 17.4901 15.2102 16.5531 15.3039 15.6786H21.6128C21.5503 16.6781 21.4879 17.5526 21.4254 18.3958H14.9291ZM28.4527 20.2386V18.3958H23.6741C23.7366 17.3339 23.8303 16.1784 23.8927 14.8978C23.8927 14.5855 23.924 13.9296 23.924 13.9296H5.52813C5.27827 15.3038 4.96594 16.8342 4.62239 18.3958H0V20.2386H4.21637C3.68542 22.581 3.15447 24.8297 2.65475 26.485L4.90348 26.6412C5.02841 26.1102 5.18457 25.5168 5.34073 24.8922H20.6133C20.3947 25.7667 20.1761 26.2664 19.895 26.5475C19.6139 26.7973 19.3016 26.891 18.6457 26.8598C18.0211 26.8598 16.2408 26.8598 14.3669 26.6724C14.648 27.1409 14.8666 27.8905 14.9291 28.359C16.7405 28.4839 18.6145 28.5464 19.5514 28.4527C20.5509 28.3902 21.238 28.2028 21.8314 27.5469C22.2374 27.1097 22.581 26.2976 22.8933 24.8922H27.2034V23.0807H23.2056C23.2993 22.2687 23.4243 21.3317 23.518 20.2386H28.4527Z" fill="#F60E1B"/>
</svg>
