<svg width="16" height="14" viewBox="0 0 16 14" fill="none" xmlns="http://www.w3.org/2000/svg">
<path fill-rule="evenodd" clip-rule="evenodd" d="M6.00006 0.333328H6.00002H4.66674H4.66673H4.66669H3.3334H3.33336H3.33335H2.00003V1.66666H3.33335V1.66667H2.00008H2.00003H0.666748V3V3V4.33333H3.33335V4.33334H0.666748V5.66666V5.66667V7H3.33335V7H2.00003V8.33334H3.33335V9.66666L3.3334 9.66667H4.66669V11L6.00006 11V12.3333H7.33338V13.6667H8.66672V13.6667H8.66677V12.3333L10.0001 12.3333V11L11.3334 11V9.66667H11.3334V9.66666H11.3334V8.33334L11.3334 8.33333V9.66667H12.6667V8.33333L14 8.33334V7L12.6667 7L15.3334 7V5.66667V4.33333V3V1.66667H14.0001V3H14V1.66667H12.6667L14 1.66666V0.333328H12.6667H12.6667H11.3334V3H11.3334V0.333328H10V1.66667H8.66676V3H8.66674H8.66672H7.3334V1.66667H6.00006V0.333328ZM8.66677 12.3333H8.66672V11H8.66676L8.66677 12.3333ZM4.66673 1.66666V3H4.66669V1.66666H4.66673ZM4.66669 4.33333H4.66673V4.33334H4.66669V4.33333ZM6.00006 4.33333V4.33334H8.66674L8.66672 4.33333H7.33338H6.00006Z" fill="#872EDF"/>
</svg>
