<svg width="20" height="21" viewBox="0 0 20 21" fill="none" xmlns="http://www.w3.org/2000/svg">
<path fill-rule="evenodd" clip-rule="evenodd" d="M11.0002 0.5H9.00025V6.5H11.0002V0.5ZM11.0002 14.5H9.00025V20.5H11.0002V14.5ZM20.0001 9.49997V11.5L14.0001 11.5V9.49997H20.0001ZM6 11.5V9.49997H5.96046e-08L0 11.5L6 11.5ZM13 5.49997H15V7.49997H13V5.49997ZM16.9999 3.49997H14.9999V5.49997H16.9999V3.49997ZM7 5.49997H5V7.49997H7V5.49997ZM3.0001 3.49997H5.0001V5.49997H3.0001V3.49997ZM13 15.5H14.9999V17.4999H16.9999V15.4999H15V13.5H13V15.5ZM7 15.5H5.0001V17.4999H3.0001V15.4999H5V13.5H7V15.5Z" fill="#872EDF"/>
</svg>
