<svg width="108" height="43" viewBox="0 0 108 43" fill="none" xmlns="http://www.w3.org/2000/svg">
<g clip-path="url(#clip0_2868_75892)">
<path d="M72.0751 6.60381C71.5373 3.92893 69.661 2.6439 67.3823 1.69662C66.2216 1.20746 64.5039 1.78592 63.9274 0.0117188C63.622 0.0275206 63.3188 0.0730271 63.0221 0.147598C61.8228 0.729939 59.7608 0.388299 60.2328 2.76425C59.6331 3.10977 59.1534 3.5407 59.1998 4.31715C59.312 4.72867 59.428 5.14019 59.5402 5.55172C59.4349 5.56528 59.3283 5.56528 59.223 5.55172C58.5808 5.69924 57.6368 5.64101 58.4183 6.74745L58.4763 10.1988C58.4347 10.2415 58.4066 10.2957 58.3956 10.3544C58.3846 10.4131 58.3912 10.4738 58.4144 10.5288C58.2016 11.0529 57.8496 11.5421 58.0508 12.1593C58.2868 13.1532 57.718 14.2053 58.2635 15.1797C58.0895 15.436 57.7916 15.6728 57.7529 15.9562C57.1803 19.9122 56.6619 23.8721 56.0932 27.8243C55.7063 30.472 55.6521 33.1818 55.1801 35.7752C54.859 37.5571 55.362 39.3313 54.7662 41.0473C54.6346 41.4355 55.095 41.7306 55.4432 41.8936C58.0198 43.1165 59.9735 41.9441 60.2521 39.044C60.5732 35.6742 60.639 32.2734 62.0743 29.0783C62.4612 28.1931 62.701 27.8631 63.6798 28.096C66.4344 28.7444 68.098 27.7738 69.1426 25.0368C69.2973 24.3652 69.4482 23.6897 69.603 23.018C69.8389 23.1229 69.8622 23.6664 70.2374 23.4063C70.3148 23.348 70.0943 22.8822 70.0092 22.6065L69.9821 21.7874C70.2288 21.3545 70.5014 20.937 70.7984 20.5373C72.9456 17.6023 74.5627 14.5625 73.7193 10.6258C73.375 9.11176 72.3575 8.01307 72.0751 6.60381ZM69.8931 17.5945C68.5777 18.7592 67.2585 20.1529 66.6936 21.6282C66.0205 23.3869 64.794 23.7285 63.4748 24.3458C61.8692 25.1222 61.6797 25.0058 61.8228 23.1306C62.3915 18.041 62.9177 12.9474 63.5986 7.87331C63.6644 7.36474 63.4632 6.87557 63.645 6.44075C63.9893 5.62548 64.2834 4.84903 65.4788 4.7675C66.9025 4.67044 66.9799 6.66205 67.5022 6.44464C69.1387 5.75359 69.1774 6.93769 69.5681 7.79178C70.5082 9.84939 70.6436 12.1244 71.1466 14.2907C71.4135 15.4476 70.8216 16.7715 69.8931 17.5945Z" fill="white"/>
<path d="M51.702 6.47572C51.9109 5.26445 51.2687 5.36151 50.4756 5.55174C47.6669 6.21561 44.9471 7.72581 42.1693 6.40584C40.9739 6.59995 39.5115 6.14184 39.2406 7.30653C38.7222 9.53883 37.6699 11.7944 37.6931 13.9646C37.7395 17.482 37.1592 20.8751 36.7646 24.3147C36.3777 27.8321 35.8245 31.3378 35.4067 34.8551C35.3525 35.2899 34.865 36.1401 35.9096 36.1828C38.5365 36.2838 41.086 35.6316 43.593 35.0182C44.2894 34.8473 44.951 34.3232 45.8214 34.3232C46.9821 34.3232 47.369 33.6516 47.0943 32.5257C46.9318 31.8463 46.5526 31.2524 47.5353 30.5846C48.3091 30.0721 47.7713 28.8919 47.3574 28.1427C46.9086 27.3313 46.305 28.0301 45.7286 28.1427C44.7537 28.364 43.7942 28.8026 42.7458 28.6396C41.6973 28.4765 41.2834 28.0883 41.4652 26.8887C41.8521 24.4234 42.4982 22.4668 45.5468 22.4474C46.5217 22.4474 47.5237 21.9427 48.4522 21.535C50.905 20.4635 47.2413 18.503 49.0287 17.1985C49.3343 16.9773 48.7849 16.2202 48.2356 16.1154C47.7938 16.0617 47.3457 16.1013 46.9202 16.2319C45.9839 16.4648 45.0438 16.7094 44.1347 17.0316C43.2255 17.3538 43.1597 16.8297 43.0785 16.2008C42.7651 13.8016 43.4228 12.8193 45.7595 12.2098C46.433 12.0462 47.125 11.9718 47.8177 11.9885C50.4408 11.9885 51.7678 10.6026 51.7987 7.95875C51.7987 7.48511 51.6169 6.95712 51.702 6.47572Z" fill="white"/>
<path d="M86.2314 9.00651C86.978 8.72698 87.8795 9.39473 88.5526 8.61828C89.5121 7.02655 89.3999 5.18247 89.7481 3.4471C89.8255 3.05887 89.7868 2.56971 89.249 2.67064C87.3458 2.94158 85.4174 2.98588 83.5039 2.80264C83.2679 2.80264 82.9855 3.29957 82.7301 3.5791C81.1555 3.6218 79.5809 3.65674 78.1185 4.35555C76.6368 5.90846 77.1165 7.97771 76.6793 9.79072C76.5168 10.474 77.3177 10.179 77.6891 10.2527C78.6253 10.4002 79.8595 9.35591 80.3547 10.113C80.7416 10.6914 80.049 11.9648 79.8479 12.9315C79.7611 13.3145 79.7055 13.7041 79.6815 14.0962C79.5035 19.0732 78.4628 23.9416 77.8554 28.8488C77.7587 29.6252 77.6813 30.1377 76.6174 30.3357C75.5535 30.5337 74.095 30.9219 74.242 32.5874C74.3784 33.5995 74.3536 34.6269 74.1685 35.6311C74.0292 36.2367 74.42 36.3183 74.7914 36.3221C76.6484 36.3454 78.4512 35.1575 80.3547 36.0853C80.4166 36.1164 80.6371 35.8602 80.7609 35.6971C81.1513 35.2617 81.6286 34.9136 82.1618 34.6755C82.6951 34.4374 83.2723 34.3146 83.8559 34.315C86.1772 34.315 86.9007 33.0766 87.0709 30.9607C87.2643 28.546 87.3727 28.48 84.9547 28.7711C83.8443 28.9031 83.6509 28.7207 83.794 27.6065C84.6258 21.4298 85.4034 15.2181 86.2314 9.00651Z" fill="white"/>
<path d="M16.1681 8.95661C16.2339 7.23677 15.5298 6.7476 13.8159 7.11642C10.1173 7.91617 6.55806 9.19343 2.93301 10.2222C0.522753 10.9482 0.0584987 11.5694 0.0082045 14.054C-0.0382209 16.329 0.00820528 16.3834 2.22889 15.8127C2.97943 15.6264 3.72224 15.4245 4.44957 15.1644C5.39742 14.8383 5.86554 14.8771 5.69919 16.1388C4.85579 22.5213 4.07817 28.9115 3.29667 35.3017C3.14579 36.5557 2.22115 38.1862 5.00667 37.6311C6.70507 37.3011 8.27193 36.711 8.48858 35.1348C9.30489 28.4728 10.1676 21.8186 10.9066 15.1644C11.0575 13.7978 11.4714 13.1883 12.841 12.8622C16.0753 12.1129 16.0521 12.0003 16.1681 8.95661Z" fill="white"/>
<path d="M107.777 10.1719C107.359 8.94511 107.982 7.39997 106.659 6.47599C106.628 6.4527 106.465 6.60799 106.361 6.68175C106.31 6.64293 106.249 6.55752 106.214 6.56916C103.552 7.38444 100.619 6.09941 98.0467 7.6329C97.971 7.66147 97.8893 7.67005 97.8093 7.65782C97.7294 7.64558 97.6539 7.61294 97.5902 7.56302C96.6346 6.34787 95.9962 7.19809 95.5591 7.97843C95.1219 8.75876 94.5532 8.90241 93.8607 9.07323C92.8625 9.31781 91.8412 9.50027 90.8701 9.84968C89.899 10.1991 88.572 10.7387 88.5179 11.5773C88.4758 12.9353 88.8455 14.2741 89.5779 15.4168C90.0151 16.0924 91.1951 15.0946 92.0888 15.1296C92.4744 15.0963 92.8533 15.0088 93.2146 14.8694C94.0851 14.6443 94.3752 14.9393 94.2359 15.8517C93.9961 17.2454 93.8142 18.6508 93.644 20.0562C92.9451 25.7502 92.259 31.4441 91.5858 37.1381C91.5317 37.6001 91.1757 38.1553 91.8102 38.528C93.2997 39.3976 96.8396 37.6622 97.0524 35.9269C97.9422 28.9388 98.8669 21.9895 99.6561 15.0053C99.8225 13.5572 100.43 13.0875 101.738 12.7924C103.397 12.4042 105.219 12.5401 106.647 11.3288C107.417 11.3094 108.009 10.8474 107.777 10.1719Z" fill="white"/>
<path d="M33.9675 5.5404C33.9675 5.39675 33.9675 5.25311 33.9675 5.11335C33.8243 4.72512 33.7701 4.19713 33.2285 4.26701C32.6869 4.33689 32.8765 4.795 32.9229 5.14052L32.4935 5.57534L30.9459 5.44334C30.8415 5.14829 31.0736 4.57759 30.5591 4.63971C30.1954 4.68242 30.2109 5.20652 30.1722 5.56369C30.2805 5.93251 30.3888 6.29744 30.4933 6.66237C30.0484 6.96907 30.5745 7.20201 30.5552 7.47377C30.4236 8.29681 29.8898 9.54301 30.2302 9.86524C31.6771 11.2357 30.5088 12.0781 29.9091 13.1069C29.6886 13.4952 29.3946 13.9999 29.4951 14.3493C30.1219 16.5466 28.3345 16.6204 27.112 17.094C26.168 17.459 25.1234 17.5055 24.1949 17.9947C23.0343 18.6081 22.7905 18.15 22.8911 16.9426C23.1697 13.8989 24.1756 10.9135 23.8428 7.79988C25.4445 6.72449 24.752 5.32687 24.3767 3.97584C23.9318 3.09457 25.1505 2.03471 24.1562 1.25826C23.1619 0.481803 21.7847 0.842854 20.6434 0.87003C19.8696 0.897206 19.2042 1.84836 19.1423 2.87328C19.0804 3.8982 19.003 4.81441 18.8792 5.76169C18.6045 7.88529 18.7206 10.1719 17.8888 12.0393C16.9796 14.0814 16.9796 15.9565 17.2698 17.9869C17.3936 18.81 17.6567 19.5981 17.0338 20.3823C16.4922 21.0928 16.6469 21.9896 16.6779 22.8204C16.999 29.164 15.7184 35.3484 14.7744 41.564C15.1381 41.9871 14.5423 42.9732 15.3277 42.9732C15.8964 42.9732 17.0338 43.2605 17.0144 41.9755H17.4013C17.529 43.0431 18.1441 42.2511 18.562 42.2744C19.4363 41.7192 18.6858 40.6439 19.2815 39.9994L19.3202 39.9683C19.4332 39.8761 19.5289 39.7644 19.6027 39.6384C19.7431 39.4685 19.8376 39.2653 19.8773 39.0482C20.3184 37.8564 20.508 35.9424 20.1482 34.999C21.0921 34.2925 20.7594 33.2404 20.8755 32.3086L21.2121 31.4079L21.2392 30.3753C21.356 30.1893 21.418 29.9739 21.418 29.7541C21.418 29.5343 21.356 29.3189 21.2392 29.1329C21.5254 27.1918 21.8233 25.2507 22.1019 23.3095C22.1268 23.0504 22.2375 22.8071 22.4163 22.6186C22.5952 22.43 22.8318 22.3069 23.0884 22.2691C24.3961 21.9391 25.6999 21.5586 27.0269 21.3296C27.6768 21.2209 28.4583 21.2325 28.2881 22.3817C27.6613 26.6793 27.0539 30.9848 27.1274 35.3484C27.3131 36.6063 27.9592 36.2453 28.6363 35.7755C28.6677 35.8116 28.6893 35.8552 28.6988 35.9022C28.7083 35.9492 28.7054 35.9979 28.6904 36.0434C28.7601 36.6063 28.8336 37.2081 29.4371 37.4332C29.824 37.573 30.3811 37.7826 30.5397 37.2352C30.648 36.847 30.1025 36.715 29.793 36.5364C29.9942 36.3035 30.3269 36.0977 30.3695 35.8376C30.9653 32.4329 32.6056 29.2378 32.3813 25.6738C32.3387 25.01 32.1569 24.3927 32.478 23.7676C32.7062 22.9912 32.9384 22.2497 32.5786 21.4655C33.3523 20.5492 32.0021 19.1361 33.3523 18.3596C33.4024 18.273 33.4414 18.1804 33.4684 18.084C33.8978 16.8883 33.4065 15.6032 33.7508 14.3997L33.6154 13.666C33.6425 12.6799 34.3892 11.4337 32.6018 11.1386C32.2613 11.0804 32.2923 10.6378 32.3387 10.3195C32.4045 9.93124 32.6095 9.87689 33.008 9.95453C33.9326 10.137 34.2383 9.52749 34.3427 8.74327C34.5896 7.66941 34.4526 6.54266 33.9559 5.55981L33.9675 5.5404Z" fill="white"/>
</g>
<defs>
<clipPath id="clip0_2868_75892">
<rect width="107.831" height="43" fill="white"/>
</clipPath>
</defs>
</svg>
