<svg width="14" height="16" viewBox="0 0 14 16" fill="none" xmlns="http://www.w3.org/2000/svg">
<path d="M7 0.5C3.27175 0.5 0.25 3.3545 0.25 6.875C0.25 7.92275 0.52525 8.9075 1 9.779V12.5H4V15.5H10V12.5H13V9.779C13.4747 8.9075 13.75 7.92275 13.75 6.875C13.75 3.3545 10.7283 0.5 7 0.5ZM4.75 11C3.92125 11 3.25 10.3287 3.25 9.5C3.25 8.67125 3.92125 8 4.75 8C5.57875 8 6.25 8.67125 6.25 9.5C6.25 10.3287 5.57875 11 4.75 11ZM7.6 13.25C7.225 13.25 7.075 12.95 7 12.725C6.925 12.95 6.7 13.25 6.4 13.25C6.25 13.25 6.025 13.1 6.025 12.875C6.025 12.35 6.625 11.375 7 11.3C7.375 11.375 7.975 12.35 7.975 12.875C7.975 13.1 7.825 13.25 7.6 13.25ZM9.25 11C8.42125 11 7.75 10.3287 7.75 9.5C7.75 8.67125 8.42125 8 9.25 8C10.0787 8 10.75 8.67125 10.75 9.5C10.75 10.3287 10.0787 11 9.25 11Z" fill="white"/>
</svg>
