<svg width="28" height="29" viewBox="0 0 28 29" fill="none" xmlns="http://www.w3.org/2000/svg">
<path fill-rule="evenodd" clip-rule="evenodd" d="M12.32 2.74H5.6V4.98H3.36027V11.7H5.6V13.94H12.32V4.98V2.74ZM12.3203 4.98H14.5603V11.7H12.3203V4.98ZM0 18.42H2.24V17.3V16.18H15.68V17.3V18.42V25.14H2.24H0V18.42ZM17.9203 18.42H15.6803V25.14H17.9203V18.42ZM16.8 2.74H21.28V4.98H16.8V2.74ZM21.28 11.7H16.8V13.94H21.28V11.7ZM21.2803 4.98H23.5203V11.7H21.2803V4.98ZM26.8803 18.42H24.6403V22.9H20.16V25.14H26.88V22.9H26.8803V18.42ZM20.16 16.18H24.64V18.42H20.16V16.18Z" fill="white"/>
</svg>
